<?xml version="1.0" encoding="utf-8"?>
<!-- Generator: Circuit Diagram, cdlibrary.dll 4.0.0.0 -->
<!DOCTYPE svg PUBLIC "-//W3C//DTD SVG 1.1//EN" "http://www.w3.org/Graphics/SVG/1.1/DTD/svg11.dtd">
<svg version="1.1" width="520" height="500" xmlns="http://www.w3.org/2000/svg">
	<line x1="100" y1="100" x2="170" y2="100" style="stroke:rgb(0, 0, 0);stroke-linecap:square;stroke-width:2" />
	<line x1="100" y1="80" x2="170" y2="80" style="stroke:rgb(0, 0, 0);stroke-linecap:square;stroke-width:2" />
	<line x1="290" y1="80" x2="320" y2="80" style="stroke:rgb(0, 0, 0);stroke-linecap:square;stroke-width:2" />
	<line x1="290" y1="100" x2="320" y2="100" style="stroke:rgb(0, 0, 0);stroke-linecap:square;stroke-width:2" />
	<line x1="290" y1="100" x2="290" y2="140" style="stroke:rgb(0, 0, 0);stroke-linecap:square;stroke-width:2" />
	<text x="20" y="180" style="font-family:Arial;font-size:11px;text-anchor:start" dominant-baseline="middle" transform="rotate(0, 20, 180)">CLK</text>
	<line x1="90" y1="100" x2="90" y2="170" style="stroke:rgb(0, 0, 0);stroke-linecap:square;stroke-width:2" />
	<line x1="90" y1="170" x2="460" y2="170" style="stroke:rgb(0, 0, 0);stroke-linecap:square;stroke-width:2" />
	<line x1="460" y1="80" x2="460" y2="170" style="stroke:rgb(0, 0, 0);stroke-linecap:square;stroke-width:2" />
	<line x1="450" y1="30" x2="450" y2="140" style="stroke:rgb(0, 0, 0);stroke-linecap:square;stroke-width:2" />
	<line x1="90" y1="30" x2="450" y2="30" style="stroke:rgb(0, 0, 0);stroke-linecap:square;stroke-width:2" />
	<line x1="90" y1="30" x2="90" y2="80" style="stroke:rgb(0, 0, 0);stroke-linecap:square;stroke-width:2" />
	<line x1="50" y1="100" x2="100" y2="100" style="stroke:rgb(0, 0, 0);stroke-linecap:square;stroke-width:2" />
	<line x1="50" y1="80" x2="100" y2="80" style="stroke:rgb(0, 0, 0);stroke-linecap:square;stroke-width:2" />
	<line x1="440" y1="140" x2="450" y2="140" style="stroke:rgb(0, 0, 0);stroke-linecap:square;stroke-width:2" />
	<line x1="440" y1="80" x2="480" y2="80" style="stroke:rgb(0, 0, 0);stroke-linecap:square;stroke-width:2" />
	<text x="330" y="50" style="font-family:Arial;font-size:11px;text-anchor:start" dominant-baseline="middle" transform="rotate(0, 330, 50)">SLAVE</text>
	<text x="180" y="50" style="font-family:Arial;font-size:11px;text-anchor:start" dominant-baseline="middle" transform="rotate(0, 180, 50)">MASTER</text>
	<line x1="100" y1="140" x2="107" y2="140" style="stroke:rgb(0, 0, 0);stroke-linecap:square;stroke-width:2" />
	<path d="M 109,130 M 109,140 L 109,158 L 137,140 L 109,122 L 109,140 M 137,140 A 2,2 -5 1 1 143,140 A 2,2 -5 1 1 137,140" style="fill-opacity:0;fill:rgb(0, 0, 0);stroke:rgb(0, 0, 0);stroke-linecap:square;stroke-width:2" />
	<line x1="145" y1="140" x2="170" y2="140" style="stroke:rgb(0, 0, 0);stroke-linecap:square;stroke-width:2" />
	<line x1="100" y1="140" x2="100" y2="180" style="stroke:rgb(0, 0, 0);stroke-linecap:square;stroke-width:2" />
	<line x1="320" y1="140" x2="320" y2="180" style="stroke:rgb(0, 0, 0);stroke-linecap:square;stroke-width:2" />
	<line x1="50" y1="180" x2="480" y2="180" style="stroke:rgb(0, 0, 0);stroke-linecap:square;stroke-width:2" />
	<text x="490" y="80" style="font-family:Arial;font-size:11px;text-anchor:start" dominant-baseline="middle" transform="rotate(0, 490, 80)">Q</text>
	<text x="30" y="100" style="font-family:Arial;font-size:11px;text-anchor:start" dominant-baseline="middle" transform="rotate(0, 30, 100)">K</text>
	<text x="30" y="80" style="font-family:Arial;font-size:11px;text-anchor:start" dominant-baseline="middle" transform="rotate(0, 30, 80)">J</text>
	<text x="400" y="410" style="font-family:Arial;font-size:11px;text-anchor:start" dominant-baseline="middle" transform="rotate(0, 400, 410)">Q'</text>
	<text x="400" y="310" style="font-family:Arial;font-size:11px;text-anchor:start" dominant-baseline="middle" transform="rotate(0, 400, 310)">Q</text>
	<text x="130" y="360" style="font-family:Arial;font-size:11px;text-anchor:start" dominant-baseline="middle" transform="rotate(0, 130, 360)">E</text>
	<text x="130" y="420" style="font-family:Arial;font-size:11px;text-anchor:start" dominant-baseline="middle" transform="rotate(0, 130, 420)">J</text>
	<text x="130" y="300" style="font-family:Arial;font-size:11px;text-anchor:start" dominant-baseline="middle" transform="rotate(0, 130, 300)">K</text>
	<line x1="330" y1="410" x2="390" y2="410" style="stroke:rgba(34, 139, 34, 255);stroke-linecap:square;stroke-width:2" />
	<line x1="330" y1="310" x2="390" y2="310" style="stroke:rgba(34, 139, 34, 255);stroke-linecap:square;stroke-width:2" />
	<line x1="140" y1="360" x2="170" y2="360" style="stroke:rgba(34, 139, 34, 255);stroke-linecap:square;stroke-width:2" />
	<line x1="140" y1="420" x2="190" y2="420" style="stroke:rgba(34, 139, 34, 255);stroke-linecap:square;stroke-width:2" />
	<line x1="140" y1="300" x2="190" y2="300" style="stroke:rgba(34, 139, 34, 255);stroke-linecap:square;stroke-width:2" />
	<line x1="370" y1="240" x2="370" y2="480" style="stroke:rgb(0, 0, 0);stroke-linecap:square;stroke-width:2" />
	<line x1="150" y1="480" x2="370" y2="480" style="stroke:rgb(0, 0, 0);stroke-linecap:square;stroke-width:2" />
	<line x1="150" y1="240" x2="370" y2="240" style="stroke:rgb(0, 0, 0);stroke-linecap:square;stroke-width:2" />
	<line x1="150" y1="240" x2="150" y2="480" style="stroke:rgb(0, 0, 0);stroke-linecap:square;stroke-width:2" />
	<line x1="340" y1="410" x2="340" y2="450" style="stroke:rgba(34, 139, 34, 255);stroke-linecap:square;stroke-width:2" />
	<line x1="170" y1="450" x2="340" y2="450" style="stroke:rgba(34, 139, 34, 255);stroke-linecap:square;stroke-width:2" />
	<line x1="170" y1="430" x2="170" y2="450" style="stroke:rgba(34, 139, 34, 255);stroke-linecap:square;stroke-width:2" />
	<line x1="170" y1="270" x2="170" y2="290" style="stroke:rgba(34, 139, 34, 255);stroke-linecap:square;stroke-width:2" />
	<line x1="170" y1="270" x2="350" y2="270" style="stroke:rgba(34, 139, 34, 255);stroke-linecap:square;stroke-width:2" />
	<line x1="350" y1="270" x2="350" y2="310" style="stroke:rgba(34, 139, 34, 255);stroke-linecap:square;stroke-width:2" />
	<line x1="170" y1="310" x2="170" y2="410" style="stroke:rgba(34, 139, 34, 255);stroke-linecap:square;stroke-width:2" />
	<line x1="170" y1="410" x2="185" y2="410" style="stroke:rgba(34, 139, 34, 255);stroke-linecap:square;stroke-width:2" />
	<line x1="170" y1="430" x2="185" y2="430" style="stroke:rgba(34, 139, 34, 255);stroke-linecap:square;stroke-width:2" />
	<path d="M 185,410 M 185,400 L 185,440 L 209,440 M 185,400 L 209,400 M 209,440 A 5,5 90 0 0 209,400" style="fill-opacity:0;fill:rgba(34, 139, 34, 255);stroke:rgba(34, 139, 34, 255);stroke-linecap:square;stroke-width:2" />
	<line x1="231" y1="420" x2="240" y2="420" style="stroke:rgba(34, 139, 34, 255);stroke-linecap:square;stroke-width:2" />
	<line x1="170" y1="290" x2="185" y2="290" style="stroke:rgba(34, 139, 34, 255);stroke-linecap:square;stroke-width:2" />
	<line x1="170" y1="310" x2="185" y2="310" style="stroke:rgba(34, 139, 34, 255);stroke-linecap:square;stroke-width:2" />
	<path d="M 185,290 M 185,280 L 185,320 L 209,320 M 185,280 L 209,280 M 209,320 A 5,5 90 0 0 209,280" style="fill-opacity:0;fill:rgba(34, 139, 34, 255);stroke:rgba(34, 139, 34, 255);stroke-linecap:square;stroke-width:2" />
	<line x1="231" y1="300" x2="240" y2="300" style="stroke:rgba(34, 139, 34, 255);stroke-linecap:square;stroke-width:2" />
	<line x1="260" y1="370" x2="260" y2="400" style="stroke:rgba(34, 139, 34, 255);stroke-linecap:square;stroke-width:2" />
	<line x1="260" y1="370" x2="350" y2="370" style="stroke:rgba(34, 139, 34, 255);stroke-linecap:square;stroke-width:2" />
	<line x1="350" y1="310" x2="350" y2="370" style="stroke:rgba(34, 139, 34, 255);stroke-linecap:square;stroke-width:2" />
	<line x1="340" y1="350" x2="340" y2="410" style="stroke:rgba(34, 139, 34, 255);stroke-linecap:square;stroke-width:2" />
	<line x1="260" y1="350" x2="340" y2="350" style="stroke:rgba(34, 139, 34, 255);stroke-linecap:square;stroke-width:2" />
	<line x1="260" y1="320" x2="260" y2="350" style="stroke:rgba(34, 139, 34, 255);stroke-linecap:square;stroke-width:2" />
	<line x1="240" y1="420" x2="260" y2="420" style="stroke:rgba(34, 139, 34, 255);stroke-linecap:square;stroke-width:2" />
	<line x1="240" y1="300" x2="260" y2="300" style="stroke:rgba(34, 139, 34, 255);stroke-linecap:square;stroke-width:2" />
	<line x1="260" y1="400" x2="275" y2="400" style="stroke:rgba(34, 139, 34, 255);stroke-linecap:square;stroke-width:2" />
	<line x1="260" y1="420" x2="275" y2="420" style="stroke:rgba(34, 139, 34, 255);stroke-linecap:square;stroke-width:2" />
	<path d="M 269,400 M 269,390 Q 289,410 269,430 M 268,430 Q 303,425 318,410 Q 303,395 268,390 M 319,410 A 2,2 -5 1 1 325,410 A 2,2 -5 1 1 319,410" style="fill-opacity:0;fill:rgba(34, 139, 34, 255);stroke:rgba(34, 139, 34, 255);stroke-linecap:square;stroke-width:2" />
	<line x1="325" y1="410" x2="330" y2="410" style="stroke:rgba(34, 139, 34, 255);stroke-linecap:square;stroke-width:2" />
	<line x1="260" y1="300" x2="275" y2="300" style="stroke:rgba(34, 139, 34, 255);stroke-linecap:square;stroke-width:2" />
	<line x1="260" y1="320" x2="275" y2="320" style="stroke:rgba(34, 139, 34, 255);stroke-linecap:square;stroke-width:2" />
	<path d="M 269,300 M 269,290 Q 289,310 269,330 M 268,330 Q 303,325 318,310 Q 303,295 268,290 M 319,310 A 2,2 -5 1 1 325,310 A 2,2 -5 1 1 319,310" style="fill-opacity:0;fill:rgba(34, 139, 34, 255);stroke:rgba(34, 139, 34, 255);stroke-linecap:square;stroke-width:2" />
	<line x1="325" y1="310" x2="330" y2="310" style="stroke:rgba(34, 139, 34, 255);stroke-linecap:square;stroke-width:2" />
	<text x="348" y="140" style="fill: rgba(34, 139, 34, 255);font-family:Arial;font-size:12px;text-anchor:start" dominant-baseline="middle" transform="rotate(0, 348, 140)">E</text>
	<line x1="320" y1="140" x2="337" y2="140" style="stroke:rgba(34, 139, 34, 255);stroke-linecap:square;stroke-width:2" />
	<ellipse cx="340" cy="140" rx="3" ry="3" style="fill-opacity:0;fill:rgba(34, 139, 34, 255);stroke:rgba(34, 139, 34, 255);stroke-width:2" />
	<text x="348" y="80" style="fill: rgba(34, 139, 34, 255);font-family:Arial;font-size:12px;text-anchor:start" dominant-baseline="middle" transform="rotate(0, 348, 80)">J</text>
	<line x1="320" y1="80" x2="337" y2="80" style="stroke:rgba(34, 139, 34, 255);stroke-linecap:square;stroke-width:2" />
	<ellipse cx="340" cy="80" rx="3" ry="3" style="fill-opacity:0;fill:rgba(34, 139, 34, 255);stroke:rgba(34, 139, 34, 255);stroke-width:2" />
	<text x="348" y="100" style="fill: rgba(34, 139, 34, 255);font-family:Arial;font-size:12px;text-anchor:start" dominant-baseline="middle" transform="rotate(0, 348, 100)">K</text>
	<line x1="320" y1="100" x2="337" y2="100" style="stroke:rgba(34, 139, 34, 255);stroke-linecap:square;stroke-width:2" />
	<ellipse cx="340" cy="100" rx="3" ry="3" style="fill-opacity:0;fill:rgba(34, 139, 34, 255);stroke:rgba(34, 139, 34, 255);stroke-width:2" />
	<text x="412" y="140" style="fill: rgba(34, 139, 34, 255);font-family:Arial;font-size:12px;text-anchor:end" dominant-baseline="middle" transform="rotate(0, 412, 140)">Q'</text>
	<line x1="423" y1="140" x2="440" y2="140" style="stroke:rgba(34, 139, 34, 255);stroke-linecap:square;stroke-width:2" />
	<ellipse cx="420" cy="140" rx="3" ry="3" style="fill-opacity:0;fill:rgba(34, 139, 34, 255);stroke:rgba(34, 139, 34, 255);stroke-width:2" />
	<text x="412" y="80" style="fill: rgba(34, 139, 34, 255);font-family:Arial;font-size:12px;text-anchor:end" dominant-baseline="middle" transform="rotate(0, 412, 80)">Q</text>
	<line x1="423" y1="80" x2="440" y2="80" style="stroke:rgba(34, 139, 34, 255);stroke-linecap:square;stroke-width:2" />
	<ellipse cx="420" cy="80" rx="3" ry="3" style="fill-opacity:0;fill:rgba(34, 139, 34, 255);stroke:rgba(34, 139, 34, 255);stroke-width:2" />
	<line x1="330" y1="60" x2="430" y2="60" style="stroke:rgba(34, 139, 34, 255);stroke-linecap:square;stroke-width:2" />
	<line x1="430" y1="60" x2="430" y2="160" style="stroke:rgba(34, 139, 34, 255);stroke-linecap:square;stroke-width:2" />
	<line x1="330" y1="160" x2="430" y2="160" style="stroke:rgba(34, 139, 34, 255);stroke-linecap:square;stroke-width:2" />
	<line x1="330" y1="60" x2="330" y2="160" style="stroke:rgba(34, 139, 34, 255);stroke-linecap:square;stroke-width:2" />
	<text x="198" y="140" style="fill: rgba(34, 139, 34, 255);font-family:Arial;font-size:12px;text-anchor:start" dominant-baseline="middle" transform="rotate(0, 198, 140)">E</text>
	<line x1="170" y1="140" x2="187" y2="140" style="stroke:rgba(34, 139, 34, 255);stroke-linecap:square;stroke-width:2" />
	<ellipse cx="190" cy="140" rx="3" ry="3" style="fill-opacity:0;fill:rgba(34, 139, 34, 255);stroke:rgba(34, 139, 34, 255);stroke-width:2" />
	<text x="198" y="80" style="fill: rgba(34, 139, 34, 255);font-family:Arial;font-size:12px;text-anchor:start" dominant-baseline="middle" transform="rotate(0, 198, 80)">J</text>
	<line x1="170" y1="80" x2="187" y2="80" style="stroke:rgba(34, 139, 34, 255);stroke-linecap:square;stroke-width:2" />
	<ellipse cx="190" cy="80" rx="3" ry="3" style="fill-opacity:0;fill:rgba(34, 139, 34, 255);stroke:rgba(34, 139, 34, 255);stroke-width:2" />
	<text x="198" y="100" style="fill: rgba(34, 139, 34, 255);font-family:Arial;font-size:12px;text-anchor:start" dominant-baseline="middle" transform="rotate(0, 198, 100)">K</text>
	<line x1="170" y1="100" x2="187" y2="100" style="stroke:rgba(34, 139, 34, 255);stroke-linecap:square;stroke-width:2" />
	<ellipse cx="190" cy="100" rx="3" ry="3" style="fill-opacity:0;fill:rgba(34, 139, 34, 255);stroke:rgba(34, 139, 34, 255);stroke-width:2" />
	<text x="262" y="140" style="fill: rgba(34, 139, 34, 255);font-family:Arial;font-size:12px;text-anchor:end" dominant-baseline="middle" transform="rotate(0, 262, 140)">Q'</text>
	<line x1="273" y1="140" x2="290" y2="140" style="stroke:rgba(34, 139, 34, 255);stroke-linecap:square;stroke-width:2" />
	<ellipse cx="270" cy="140" rx="3" ry="3" style="fill-opacity:0;fill:rgba(34, 139, 34, 255);stroke:rgba(34, 139, 34, 255);stroke-width:2" />
	<text x="262" y="80" style="fill: rgba(34, 139, 34, 255);font-family:Arial;font-size:12px;text-anchor:end" dominant-baseline="middle" transform="rotate(0, 262, 80)">Q</text>
	<line x1="273" y1="80" x2="290" y2="80" style="stroke:rgba(34, 139, 34, 255);stroke-linecap:square;stroke-width:2" />
	<ellipse cx="270" cy="80" rx="3" ry="3" style="fill-opacity:0;fill:rgba(34, 139, 34, 255);stroke:rgba(34, 139, 34, 255);stroke-width:2" />
	<line x1="180" y1="60" x2="280" y2="60" style="stroke:rgba(34, 139, 34, 255);stroke-linecap:square;stroke-width:2" />
	<line x1="280" y1="60" x2="280" y2="160" style="stroke:rgba(34, 139, 34, 255);stroke-linecap:square;stroke-width:2" />
	<line x1="180" y1="160" x2="280" y2="160" style="stroke:rgba(34, 139, 34, 255);stroke-linecap:square;stroke-width:2" />
	<line x1="180" y1="60" x2="180" y2="160" style="stroke:rgba(34, 139, 34, 255);stroke-linecap:square;stroke-width:2" />
	<ellipse cx="90" cy="100" rx="2" ry="2" style="fill-opacity:1;fill:rgb(0, 0, 0);stroke:rgb(0, 0, 0);stroke-width:2" />
	<ellipse cx="460" cy="80" rx="2" ry="2" style="fill-opacity:1;fill:rgb(0, 0, 0);stroke:rgb(0, 0, 0);stroke-width:2" />
	<ellipse cx="90" cy="80" rx="2" ry="2" style="fill-opacity:1;fill:rgb(0, 0, 0);stroke:rgb(0, 0, 0);stroke-width:2" />
	<ellipse cx="100" cy="180" rx="2" ry="2" style="fill-opacity:1;fill:rgb(0, 0, 0);stroke:rgb(0, 0, 0);stroke-width:2" />
	<ellipse cx="320" cy="180" rx="2" ry="2" style="fill-opacity:1;fill:rgb(0, 0, 0);stroke:rgb(0, 0, 0);stroke-width:2" />
	<ellipse cx="340" cy="410" rx="2" ry="2" style="fill-opacity:1;fill:rgba(34, 139, 34, 255);stroke:rgba(34, 139, 34, 255);stroke-width:2" />
	<ellipse cx="350" cy="310" rx="2" ry="2" style="fill-opacity:1;fill:rgba(34, 139, 34, 255);stroke:rgba(34, 139, 34, 255);stroke-width:2" />
	<ellipse cx="170" cy="360" rx="2" ry="2" style="fill-opacity:1;fill:rgba(34, 139, 34, 255);stroke:rgba(34, 139, 34, 255);stroke-width:2" />
</svg>